<svg width="49" height="48" viewBox="0 0 49 48" fill="none" xmlns="http://www.w3.org/2000/svg">
<path d="M31.7 24C32.1418 24 32.5041 24.3591 32.46 24.7987C32.2979 26.415 31.6464 27.9508 30.5832 29.1956C29.3461 30.644 27.6328 31.6035 25.7515 31.9015C23.8701 32.1995 21.9441 31.8164 20.32 30.8211C18.6959 29.8259 17.4802 28.2837 16.8915 26.4721C16.3029 24.6605 16.38 22.6984 17.1089 20.9385C17.8379 19.1787 19.1708 17.7367 20.8681 16.8719C22.5653 16.0072 24.5154 15.7764 26.3675 16.221C27.9594 16.6032 29.3891 17.4627 30.4703 18.675C30.7644 19.0048 30.6824 19.5082 30.3249 19.7679C29.9675 20.0276 29.4705 19.9442 29.1683 19.622C28.3171 18.7143 27.2152 18.07 25.994 17.7768C24.5123 17.4211 22.9522 17.6057 21.5944 18.2976C20.2367 18.9894 19.1703 20.143 18.5872 21.5508C18.004 22.9587 17.9423 24.5284 18.4132 25.9777C18.8841 27.427 19.8567 28.6607 21.156 29.4569C22.4553 30.2531 23.9961 30.5596 25.5012 30.3212C27.0063 30.0828 28.3769 29.3152 29.3666 28.1565C30.1822 27.2015 30.6949 26.0325 30.8501 24.798C30.9051 24.3596 31.2582 24 31.7 24Z" fill="url(#paint0_linear_40337_5859)" style=""/>
<path d="M11.3361 16.4C10.9535 16.1791 10.8207 15.6886 11.0605 15.3175C12.6274 12.8922 14.8246 10.9315 17.4231 9.65007C20.2613 8.25045 23.4507 7.72387 26.5882 8.13692C29.7256 8.54997 32.6701 9.8841 35.0493 11.9706C37.4285 14.0571 39.1355 16.8023 39.9545 19.8589C40.7736 22.9156 40.6678 26.1465 39.6506 29.1431C38.6334 32.1396 36.7505 34.7673 34.2399 36.6937C31.7293 38.6201 28.7039 39.7588 25.5462 39.9658C22.655 40.1553 19.7719 39.5559 17.2023 38.239C16.8091 38.0375 16.6788 37.5463 16.8997 37.1636C17.1206 36.781 17.609 36.652 18.0033 36.8514C20.2979 38.0113 22.8662 38.538 25.4415 38.3692C28.2835 38.1829 31.0064 37.1581 33.2659 35.4243C35.5254 33.6905 37.2201 31.3257 38.1355 28.6288C39.051 25.9319 39.1462 23.0241 38.4091 20.273C37.6719 17.522 36.1356 15.0514 33.9943 13.1735C31.853 11.2957 29.203 10.095 26.3793 9.72323C23.5556 9.35149 20.6851 9.82541 18.1308 11.0851C15.8161 12.2266 13.8552 13.9668 12.448 16.1187C12.2062 16.4885 11.7188 16.621 11.3361 16.4Z" fill="url(#paint1_linear_40337_5859)" style=""/>
<path d="M47.9 24C48.2314 24 48.5008 24.2687 48.4925 24.6C48.3631 29.7783 46.5611 34.782 43.3476 38.8583C40.0102 43.0918 35.3446 46.0784 30.1027 47.3369C24.8608 48.5953 19.3478 48.0524 14.4522 45.7954C9.5565 43.5385 5.56324 39.6991 3.11584 34.8958C0.668448 30.0925 -0.0905501 24.6051 0.961153 19.3178C2.01286 14.0306 4.81401 9.25134 8.91324 5.75026C13.0125 2.24918 18.1711 0.230148 23.5578 0.0185033C28.7444 -0.18528 33.8516 1.29798 38.117 4.23698C38.3899 4.42499 38.4489 4.80091 38.2542 5.069C38.0594 5.33708 37.6846 5.39577 37.4114 5.20811C33.3643 2.42736 28.5221 1.02438 23.6049 1.21758C18.4875 1.41864 13.5869 3.33672 9.69258 6.66275C5.79831 9.98877 3.13721 14.529 2.1381 19.5519C1.13898 24.5749 1.86003 29.7879 4.18505 34.351C6.51008 38.9141 10.3037 42.5616 14.9546 44.7057C19.6054 46.8498 24.8427 47.3656 29.8226 46.17C34.8024 44.9745 39.2347 42.1372 42.4052 38.1153C45.4518 34.2507 47.163 29.5087 47.2921 24.6C47.3008 24.2688 47.5686 24 47.9 24Z" fill="url(#paint2_linear_40337_5859)" style=""/>
<defs>
<linearGradient id="paint0_linear_40337_5859" x1="31.7533" y1="24" x2="22.26" y2="30.9067" gradientUnits="userSpaceOnUse">
<stop stop-color="#00CC99" style="stop-color:#00CC99;stop-color:color(display-p3 0.0000 0.8000 0.6000);stop-opacity:1;"/>
<stop offset="1" stop-color="#00BFFF" style="stop-color:#00BFFF;stop-color:color(display-p3 0.0000 0.7490 1.0000);stop-opacity:1;"/>
</linearGradient>
<linearGradient id="paint1_linear_40337_5859" x1="11.9366" y1="16.7467" x2="35.2862" y2="14.2773" gradientUnits="userSpaceOnUse">
<stop stop-color="#00CC99" style="stop-color:#00CC99;stop-color:color(display-p3 0.0000 0.8000 0.6000);stop-opacity:1;"/>
<stop offset="1" stop-color="#00BFFF" style="stop-color:#00BFFF;stop-color:color(display-p3 0.0000 0.7490 1.0000);stop-opacity:1;"/>
</linearGradient>
<linearGradient id="paint2_linear_40337_5859" x1="46.26" y1="24" x2="17.78" y2="44.72" gradientUnits="userSpaceOnUse">
<stop stop-color="#00CC99" style="stop-color:#00CC99;stop-color:color(display-p3 0.0000 0.8000 0.6000);stop-opacity:1;"/>
<stop offset="1" stop-color="#00BFFF" style="stop-color:#00BFFF;stop-color:color(display-p3 0.0000 0.7490 1.0000);stop-opacity:1;"/>
</linearGradient>
</defs>
</svg>
